PathFileType	4	(X/Y/Z)	/Users/itak/Documents/Research/Walk-IL/dataset/trc/00193_00008.trc
DataRate	CameraRate	NumFrames	NumMarkers	Units	OrigDataRate	OrigDataStartFrame	OrigNumFrames
100.000000	100.000000	4	53	mm	100.000000	670	766
Frame#	Time	RPSI			LPSI			L3			STRN			T10			C7			CLAV			RBAK			LBAK			LSHO			LUPA			LAEL			LAOL			LWTS			LWPS			LFRA			LIFD			LHPS			LHTS			RSHO			RUPA			RAEL			RAOL			RWTS			RWPS			RFRA			RIFD			RHTS			RHPS			RBHD			LFHD			RFHD			LBHD			LHIP			RHIP			RASI			LASI			LKNE			LTHI			LANK			LTIP			LTOE			LMT1			LMT5			LHEE			RKNE			RTHI			RANK			RTIP			RTOE			RMT1			RMT5			RHEE			
		X1	Y1	Z1	X2	Y2	Z2	X3	Y3	Z3	X4	Y4	Z4	X5	Y5	Z5	X6	Y6	Z6	X7	Y7	Z7	X8	Y8	Z8	X9	Y9	Z9	X10	Y10	Z10	X11	Y11	Z11	X12	Y12	Z12	X13	Y13	Z13	X14	Y14	Z14	X15	Y15	Z15	X16	Y16	Z16	X17	Y17	Z17	X18	Y18	Z18	X19	Y19	Z19	X20	Y20	Z20	X21	Y21	Z21	X22	Y22	Z22	X23	Y23	Z23	X24	Y24	Z24	X25	Y25	Z25	X26	Y26	Z26	X27	Y27	Z27	X28	Y28	Z28	X29	Y29	Z29	X30	Y30	Z30	X31	Y31	Z31	X32	Y32	Z32	X33	Y33	Z33	X34	Y34	Z34	X35	Y35	Z35	X36	Y36	Z36	X37	Y37	Z37	X38	Y38	Z38	X39	Y39	Z39	X40	Y40	Z40	X41	Y41	Z41	X42	Y42	Z42	X43	Y43	Z43	X44	Y44	Z44	X45	Y45	Z45	X46	Y46	Z46	X47	Y47	Z47	X48	Y48	Z48	X49	Y49	Z49	X50	Y50	Z50	X51	Y51	Z51	X52	Y52	Z52	X53	Y53	Z53	

671	6.7	562.5899047851562	1060.560302734375	883.1951293945312	578.9986572265625	1061.361450195312	1005.504943847656	570.7228393554688	1096.802368164062	941.2373046875	321.2218933105469	1310.659057617188	1001.971435546875	608.327880859375	1258.254028320312	936.17236328125	548.34716796875	1526.748046875	964.60888671875	353.5269165039062	1423.138916015625	1008.651428222656	587.690185546875	1355.330200195312	841.159423828125	581.1546630859375	1500.257934570312	1057.786376953125	528.657470703125	1489.072387695312	1152.345825195312	585.5487060546875	1359.334716796875	1211.452758789062	584.0233154296875	1147.753051757812	1246.677001953125	594.2117309570312	1119.518432617188	1163.096801757812	420.8580322265625	961.5247192382812	1310.42626953125	501.4344482421875	914.1660766601562	1309.937133789062	555.4285278320312	1044.421020507812	1282.509521484375	349.2808532714844	807.8402709960938	1318.5126953125	463.0848999023438	857.7904052734375	1330.970703125	403.1592407226562	894.6781616210938	1351.38671875	443.1250610351562	1510.619873046875	805.1221923828125	443.8977966308594	1444.318725585938	732.73095703125	430.8654479980469	1151.609130859375	676.5745239257812	466.0313720703125	1146.817016601562	768.3497924804688	259.8543701171875	968.36865234375	773.3921508789062	308.2006225585938	926.6898803710938	710.9933471679688	387.2423400878906	1081.84130859375	676.8218383789062	211.7583312988281	795.4710083007812	834.7918701171875	210.8861389160156	886.0797119140625	790.0135498046875	263.5881042480469	855.5912475585938	736.5101318359375	442.0468444824219	1699.653076171875	922.9260864257812	309.1962585449219	1701.971923828125	1095.962890625	273.3724975585938	1701.394653320312	970.8161010742188	482.7813415527344	1709.605102539062	1053.353759765625	495.2300415039062	1001.118286132812	1139.538208007812	392.2739868164062	1020.687805175781	779.8174438476562	323.6176452636719	1050.076782226562	849.8640747070312	362.8830261230469	1042.574462890625	1104.736206054688	369.0281372070312	508.4962158203125	1112.189453125	403.6336364746094	650.1724853515625	1139.388549804688	437.2426147460938	43.76721572875977	1110.67919921875	391.4788818359375	276.5834655761719	1121.859130859375	215.2416229248047	46.86381530761719	1103.493286132812	261.9601440429688	46.62923431396484	1051.66796875	334.1863098144531	38.63217926025391	1158.425659179688	482.0776672363281	41.9113655090332	1037.469848632812	281.1874694824219	523.2094116210938	817.5587768554688	303.6871948242188	797.604248046875	784.9436645507812	454.8546142578125	50.62345886230469	808.2694091796875	290.8463745117188	396.9041748046875	829.7796020507812	249.1500091552734	89.37033843994141	850.2564697265625	298.034423828125	68.55956268310547	891.8848266601562	343.6026000976562	55.39559555053711	779.031005859375	510.0912475585938	52.16046142578125	872.4336547851562	
672	6.71	560.712890625	1061.045654296875	884.5950927734375	576.8099365234375	1061.636352539062	1006.960205078125	568.6490478515625	1097.206665039062	942.7578735351562	318.6255493164062	1311.349731445312	1003.14453125	606.2964477539062	1258.691772460938	938.0548706054688	546.0790405273438	1527.14697265625	966.4041137695312	350.9969482421875	1423.31787109375	1009.697204589844	585.9895629882812	1355.780883789062	843.0477905273438	578.6632080078125	1500.64453125	1059.664672851562	525.8821411132812	1489.394775390625	1154.057983398438	582.546875	1359.629150390625	1213.322021484375	580.6390380859375	1148.069702148438	1248.755493164062	591.0546875	1119.689819335938	1165.243041992188	415.7673950195312	963.187744140625	1311.996704101562	496.0137023925781	915.0790405273438	1312.12548828125	551.1862182617188	1044.963134765625	1284.642211914062	342.8361206054688	810.1785888671875	1320.130249023438	457.0751037597656	859.1749267578125	1333.063110351562	397.2352294921875	896.6957397460938	1352.961791992188	441.3794250488281	1510.908813476562	806.586669921875	442.478271484375	1444.640502929688	734.2000732421875	430.3845825195312	1152.078369140625	677.64453125	465.2431030273438	1147.186279296875	769.52880859375	259.855712890625	967.6310424804688	772.9667358398438	308.5914916992188	926.498046875	710.5560913085938	387.0411987304688	1082.175903320312	677.4298706054688	212.5211639404297	794.137451171875	833.3836059570312	211.2230987548828	884.9262084960938	789.0384521484375	264.3203430175781	855.0111083984375	735.5816040039062	439.8380126953125	1699.960083007812	924.2455444335938	306.0472412109375	1702.216064453125	1096.6201171875	270.8894653320312	1701.420776367188	971.3011474609375	479.8551330566406	1710.038940429688	1054.931762695312	492.3908996582031	1001.103454589844	1140.775390625	390.6600036621094	1021.503295898438	780.8982543945312	321.5436706542969	1050.731567382812	850.7887573242188	360.5618286132812	1042.611938476562	1105.781372070312	369.0299377441406	508.3807678222656	1112.612182617188	402.9088134765625	650.0944213867188	1139.962768554688	437.2618713378906	43.78586578369141	1110.636474609375	391.5587463378906	276.5239562988281	1122.031982421875	215.2632293701172	46.85118865966797	1103.48974609375	262.0166931152344	46.62136459350586	1051.6865234375	334.1943054199219	38.63094711303711	1158.427612304688	482.0992431640625	41.90749359130859	1037.395385742188	280.2508544921875	523.7514038085938	818.5846557617188	301.7103576660156	798.4483032226562	785.8011474609375	448.4380493164062	48.70964050292969	811.8574829101562	288.87841796875	397.3804626464844	831.201416015625	243.1030120849609	90.3482666015625	852.9778442382812	291.4737854003906	69.16960144042969	894.9137573242188	337.3551940917969	54.61124038696289	782.343505859375	503.4503173828125	50.10522842407227	876.2319946289062	
673	6.72	558.8005981445312	1061.496337890625	885.8656005859375	574.6409301757812	1061.886352539062	1008.273071289062	566.5732421875	1097.575439453125	944.1382446289062	316.0636291503906	1312.063720703125	1004.266052246094	604.284912109375	1259.083618164062	939.7880859375	543.8851928710938	1527.503173828125	968.074462890625	348.5076904296875	1423.470947265625	1010.633728027344	584.2906494140625	1356.1962890625	844.7974853515625	576.2525634765625	1500.987060546875	1061.4111328125	523.2105102539062	1489.6708984375	1155.648315429688	579.6531372070312	1359.863525390625	1215.036865234375	577.4032592773438	1148.304809570312	1250.573120117188	588.0008544921875	1119.837158203125	1167.115600585938	410.9666442871094	964.6100463867188	1313.226196289062	490.9164123535156	915.8558959960938	1313.841186523438	547.1681518554688	1045.37646484375	1286.439819335938	336.8206176757812	812.2047119140625	1321.337280273438	451.4292602539062	860.3285522460938	1334.669189453125	391.7075805664062	898.4204711914062	1354.167724609375	439.6618347167969	1511.185302734375	807.9508666992188	441.0716247558594	1444.94921875	735.5694580078125	429.8686218261719	1152.540893554688	678.6575317382812	464.3765869140625	1147.544799804688	770.6610107421875	259.9712219238281	966.775634765625	772.4154052734375	309.0649108886719	926.2594604492188	709.9500122070312	386.8432922363281	1082.505126953125	677.95654296875	213.5178527832031	792.650146484375	831.76318359375	211.7307281494141	883.6094970703125	787.9024047851562	265.1944885253906	854.3461303710938	734.4404296875	437.7331848144531	1700.2265625	925.4403076171875	303.0484924316406	1702.504638671875	1097.1953125	268.5153198242188	1701.474975585938	971.7247314453125	477.0714111328125	1710.427490234375	1056.36572265625	489.67578125	1001.090026855469	1141.892211914062	389.0585327148438	1022.27978515625	781.8958129882812	319.5481262207031	1051.332397460938	851.718994140625	358.275390625	1042.694458007812	1106.78564453125	369.0403747558594	508.2891540527344	1113.043701171875	402.2170104980469	650.0248413085938	1140.504150390625	437.2860717773438	43.79156112670898	1110.60302734375	391.6484069824219	276.472412109375	1122.228515625	215.2758636474609	46.83894729614258	1103.47705078125	262.0653076171875	46.62408447265625	1051.7060546875	334.1967163085938	38.59882354736328	1158.428588867188	482.1192626953125	41.89912414550781	1037.330444335938	279.5373229980469	524.205810546875	819.5596313476562	299.787109375	799.2864379882812	786.6582641601562	442.8397216796875	46.99877166748047	815.1098022460938	287.2992858886719	397.8081665039062	832.4703979492188	237.7912292480469	90.79963684082031	855.5053100585938	285.7369079589844	69.56211853027344	897.7684326171875	331.9089660644531	53.66090393066406	785.3406982421875	497.6264953613281	48.38400650024414	879.6849365234375	
674	6.73	556.8477172851562	1061.91015625	887.0068359375	572.4877319335938	1062.110717773438	1009.442749023438	564.4959106445312	1097.90771484375	945.3787231445312	313.5911560058594	1312.739624023438	1005.33056640625	602.2890014648438	1259.429077148438	941.371826171875	541.7615356445312	1527.817749023438	969.6224365234375	346.0897827148438	1423.612182617188	1011.48486328125	582.592529296875	1356.576171875	846.4100952148438	573.9170532226562	1501.28466796875	1063.029663085938	520.63671875	1489.90283203125	1157.119506835938	576.8619995117188	1360.041259765625	1216.603149414062	574.3073120117188	1148.4619140625	1252.140258789062	585.054443359375	1119.960693359375	1168.724731445312	406.4517517089844	965.7833862304688	1314.121704101562	486.1455078125	916.4974975585938	1315.107177734375	543.3675537109375	1045.663818359375	1287.917358398438	331.2419128417969	813.9139404296875	1322.120971679688	446.1548461914062	861.2474365234375	1335.810791015625	386.5809326171875	899.8382568359375	1355.018188476562	437.9722290039062	1511.4501953125	809.2144775390625	439.6828002929688	1445.246948242188	736.8383178710938	429.3220520019531	1152.997436523438	679.6114501953125	463.4325561523438	1147.894775390625	771.7467651367188	260.1817626953125	965.8184204101562	771.740966796875	309.6219787597656	925.9852294921875	709.1845703125	386.64697265625	1082.8310546875	678.4034423828125	214.7017822265625	791.0442504882812	829.936279296875	212.4003143310547	882.1639404296875	786.6129760742188	266.1963806152344	853.616943359375	733.1016845703125	435.7235412597656	1700.442016601562	926.5155029296875	300.1978149414062	1702.839477539062	1097.690551757812	266.2460327148438	1701.559448242188	972.0863647460938	474.4248962402344	1710.774169921875	1057.656127929688	487.1078491210938	1001.077880859375	1142.8837890625	387.4317626953125	1023.005615234375	782.8106079101562	317.58251953125	1051.882568359375	852.6273803710938	356.0178833007812	1042.806762695312	1107.744506835938	369.0411987304688	508.2164306640625	1113.472045898438	401.5353393554688	649.9612426757812	1141.014892578125	437.3150024414062	43.78432083129883	1110.579345703125	391.7374267578125	276.427734375	1122.448364257812	215.2905883789062	46.82488632202148	1103.4658203125	262.1040344238281	46.63584136962891	1051.723388671875	334.1912536621094	38.53082656860352	1158.426391601562	482.1376037597656	41.88665771484375	1037.276611328125	279.0575256347656	524.5687866210938	820.497802734375	297.9443664550781	800.0657958984375	787.4838256835938	438.0371704101562	45.46512603759766	818.016845703125	286.0957946777344	398.1890258789062	833.6005859375	233.1914978027344	90.69775390625	857.8114013671875	280.8191223144531	69.68710327148438	900.385009765625	327.2188110351562	52.51848602294922	788.0125122070312	492.5999145507812	46.97244644165039	882.7686157226562	
